<svg width="26" height="24" viewBox="0 0 26 24" fill="none" xmlns="http://www.w3.org/2000/svg">
<g clip-path="url(#clip0)">
<path d="M9.46201 3.58069L5.57327 7.75022H1.11239C0.532814 7.75022 0.063385 8.25366 0.063385 8.87522V15.6252C0.063385 16.2463 0.532814 16.7502 1.11239 16.7502H5.57327L9.46201 20.9198C10.1189 21.6243 11.2527 21.1293 11.2527 20.1243V4.37616C11.2527 3.37022 10.1181 2.87709 9.46201 3.58069ZM19.6601 1.18631C19.1718 0.842717 18.5158 0.987561 18.1954 1.51209C17.8746 2.03569 18.0109 2.73928 18.4992 3.08287C21.3957 5.12147 23.1244 8.5485 23.1244 12.2507C23.1244 15.9529 21.3957 19.3799 18.4992 21.4185C18.0109 21.7616 17.8746 22.4657 18.1954 22.9888C18.5031 23.4908 19.1539 23.6713 19.6601 23.3146C23.1532 20.8555 25.2394 16.7188 25.2394 12.2502C25.2394 7.78163 23.1532 3.64537 19.6601 1.18631ZM21.0434 12.2502C21.0434 9.27225 19.6421 6.53428 17.2946 4.92647C16.8055 4.59178 16.1568 4.74741 15.8469 5.27616C15.537 5.80491 15.6817 6.50475 16.1708 6.83991C17.9082 8.03006 18.9454 10.0523 18.9454 12.2502C18.9454 14.4482 17.9082 16.4704 16.1708 17.6605C15.6817 17.9952 15.537 18.6951 15.8469 19.2243C16.1315 19.7099 16.7701 19.934 17.2946 19.574C19.6421 17.9662 21.0434 15.2287 21.0434 12.2502ZM14.8469 8.64694C14.3407 8.35022 13.7022 8.54569 13.4216 9.08991C13.1423 9.63413 13.3271 10.318 13.8346 10.6185C14.3989 10.9508 14.7494 11.5766 14.7494 12.2502C14.7494 12.9243 14.3989 13.5496 13.835 13.8819C13.3276 14.1824 13.1427 14.8663 13.422 15.4105C13.703 15.9571 14.3421 16.1512 14.8473 15.8535C16.0812 15.1246 16.8479 13.7441 16.8479 12.2498C16.8479 10.7554 16.0812 9.37538 14.8469 8.64694Z" fill="black" fill-opacity="0.75"/>
</g>
<defs>
<clipPath id="clip0">
<rect width="25.1761" height="24" fill="white" transform="translate(0.063385)"/>
</clipPath>
</defs>
</svg>
