<svg width="26" height="24" viewBox="0 0 26 24" fill="none" xmlns="http://www.w3.org/2000/svg">
<g clip-path="url(#clip0)">
<path d="M12.5717 12H16.5649C18.4531 12 20.149 10.4906 20.2587 8.46844C20.2888 7.91889 20.2055 7.369 20.0146 6.85797C19.8238 6.34694 19.5302 5.88737 19.1547 5.51203C19.4757 4.8669 19.6133 4.13502 19.5507 3.40688C19.3859 1.43297 17.6987 1.70209e-09 15.8499 1.70209e-09H12.5717C12.3863 1.70209e-09 12.2084 0.0790176 12.0772 0.21967C11.9461 0.360322 11.8724 0.551088 11.8724 0.75V11.25C11.8724 11.4489 11.9461 11.6397 12.0772 11.7803C12.2084 11.921 12.3863 12 12.5717 12ZM14.3201 2.625H16.0684C16.3466 2.625 16.6134 2.74353 16.8102 2.9545C17.0069 3.16548 17.1174 3.45163 17.1174 3.75C17.1174 4.04837 17.0069 4.33452 16.8102 4.5455C16.6134 4.75647 16.3466 4.875 16.0684 4.875H14.3201V2.625ZM14.3201 7.125H16.7678C17.046 7.125 17.3128 7.24353 17.5095 7.4545C17.7062 7.66548 17.8168 7.95163 17.8168 8.25C17.8168 8.54837 17.7062 8.83452 17.5095 9.0455C17.3128 9.25647 17.046 9.375 16.7678 9.375H14.3201V7.125ZM7.4631 1.04297C7.37277 0.740139 7.19505 0.475925 6.9556 0.288462C6.71614 0.100999 6.42734 -1.51403e-05 6.13087 1.70209e-09L5.02592 1.70209e-09C4.72945 -1.51403e-05 4.44064 0.100999 4.20119 0.288462C3.96173 0.475925 3.78402 0.740139 3.69368 1.04297L0.708836 11.0498C0.680086 11.1612 0.67571 11.2781 0.696048 11.3916C0.716387 11.5051 0.76089 11.6119 0.826086 11.7039C0.891283 11.7959 0.97541 11.8704 1.07191 11.9218C1.1684 11.9732 1.27466 11.9999 1.38238 12H2.47203C2.62498 12 2.77372 11.9462 2.89545 11.8469C3.01718 11.7476 3.1052 11.6082 3.14602 11.4502L3.6679 9.75H7.48889L8.01077 11.4502C8.05159 11.6082 8.1396 11.7476 8.26133 11.8469C8.38307 11.9462 8.5318 12 8.68475 12H9.7744C9.88217 12 9.98847 11.9733 10.085 11.922C10.1816 11.8706 10.2658 11.7961 10.331 11.7041C10.3962 11.6121 10.4408 11.5052 10.4612 11.3917C10.4815 11.2782 10.4771 11.1612 10.4484 11.0498L7.4631 1.04297ZM4.58927 6.75L5.57839 3.52969L6.56751 6.75H4.58927ZM25.6567 12.96L23.6807 10.8366C23.6161 10.7665 23.5392 10.7109 23.4545 10.6729C23.3698 10.635 23.2788 10.6154 23.187 10.6154C23.0952 10.6154 23.0042 10.635 22.9195 10.6729C22.8347 10.7109 22.7579 10.7665 22.6933 10.8366L16.0715 17.9381L13.6496 15.3366C13.585 15.2665 13.5082 15.2109 13.4234 15.1729C13.3387 15.135 13.2477 15.1154 13.1559 15.1154C13.0641 15.1154 12.9731 15.135 12.8884 15.1729C12.8037 15.2109 12.7268 15.2665 12.6622 15.3366L10.6822 17.46C10.5516 17.6006 10.4782 17.791 10.4782 17.9895C10.4782 18.1879 10.5516 18.3783 10.6822 18.5189L15.5776 23.7787C15.6422 23.8488 15.7191 23.9044 15.8039 23.9424C15.8886 23.9804 15.9796 23.9999 16.0715 23.9999C16.1634 23.9999 16.2543 23.9804 16.3391 23.9424C16.4239 23.9044 16.5008 23.8488 16.5654 23.7787L25.6567 14.0189C25.7873 13.8782 25.8605 13.6877 25.8603 13.4893C25.8601 13.2908 25.7866 13.1005 25.6559 12.96H25.6567Z" fill="black" fill-opacity="0.75"/>
</g>
<defs>
<clipPath id="clip0">
<rect width="25.1761" height="24" fill="white" transform="translate(0.683105)"/>
</clipPath>
</defs>
</svg>
